<svg width="58" height="58" viewBox="0 0 58 58" fill="none" xmlns="http://www.w3.org/2000/svg">
<path fill-rule="evenodd" clip-rule="evenodd" d="M29 58C45.0163 58 58 45.0163 58 29C58 12.9838 45.0163 0 29 0C12.9837 0 0 12.9838 0 29C0 45.0163 12.9837 58 29 58ZM38.047 13.5094C38.4874 11.9452 36.9694 11.0202 35.583 12.0079L16.23 25.7949C14.7265 26.866 14.963 29 16.5853 29H21.6814V28.9605H31.6136L23.5208 31.816L19.953 44.4906C19.5127 46.0549 21.0305 46.9798 22.417 45.9921L41.77 32.2052C43.2735 31.1341 43.0369 29 41.4148 29H33.6866L38.047 13.5094Z" fill="#E85F5C"/>
</svg>
